<svg xmlns="http://www.w3.org/2000/svg" xmlns:xlink="http://www.w3.org/1999/xlink" width="2000" zoomAndPan="magnify" viewBox="0 0 1500 1499.999933" height="2000" preserveAspectRatio="xMidYMid meet" version="1.0"><defs><g/><clipPath id="30281a4955"><path d="M 1071.863281 610.824219 L 1421 610.824219 L 1421 920.855469 L 1071.863281 920.855469 Z M 1071.863281 610.824219 " clip-rule="nonzero"/></clipPath><clipPath id="c74bae14ed"><path d="M 1086.863281 610.824219 L 1405.660156 610.824219 C 1413.941406 610.824219 1420.660156 617.539062 1420.660156 625.824219 L 1420.660156 905.855469 C 1420.660156 914.140625 1413.941406 920.855469 1405.660156 920.855469 L 1086.863281 920.855469 C 1078.582031 920.855469 1071.863281 914.140625 1071.863281 905.855469 L 1071.863281 625.824219 C 1071.863281 617.539062 1078.582031 610.824219 1086.863281 610.824219 Z M 1086.863281 610.824219 " clip-rule="nonzero"/></clipPath><clipPath id="8b2ba7a178"><path d="M 0.863281 0.824219 L 349.800781 0.824219 L 349.800781 310.855469 L 0.863281 310.855469 Z M 0.863281 0.824219 " clip-rule="nonzero"/></clipPath><clipPath id="07221e44af"><path d="M 15.863281 0.824219 L 334.660156 0.824219 C 342.941406 0.824219 349.660156 7.539062 349.660156 15.824219 L 349.660156 295.855469 C 349.660156 304.140625 342.941406 310.855469 334.660156 310.855469 L 15.863281 310.855469 C 7.582031 310.855469 0.863281 304.140625 0.863281 295.855469 L 0.863281 15.824219 C 0.863281 7.539062 7.582031 0.824219 15.863281 0.824219 Z M 15.863281 0.824219 " clip-rule="nonzero"/></clipPath><clipPath id="603bfc5041"><rect x="0" width="350" y="0" height="311"/></clipPath><clipPath id="6d14ea85e4"><rect x="0" width="1008" y="0" height="513"/></clipPath><clipPath id="b84179613a"><rect x="0" width="1006" y="0" height="61"/></clipPath></defs><g clip-path="url(#30281a4955)"><g clip-path="url(#c74bae14ed)"><g transform="matrix(1, 0, 0, 1, 1071, 610)"><g clip-path="url(#603bfc5041)"><g clip-path="url(#8b2ba7a178)"><g clip-path="url(#07221e44af)"><path fill="#0097b2" d="M 0.863281 0.824219 L 349.648438 0.824219 L 349.648438 310.855469 L 0.863281 310.855469 Z M 0.863281 0.824219 " fill-opacity="1" fill-rule="nonzero"/></g></g></g></g></g></g><g fill="#1e1e1e" fill-opacity="1"><g transform="translate(1143.077522, 832.950484)"><g><path d="M 42.828125 67.71875 L 9.453125 67.71875 L 9.453125 29.125 L 42.4375 29.125 C 49.382812 29.125 55.078125 28 59.515625 25.75 C 63.953125 23.5 67.710938 20.054688 70.796875 15.421875 C 73.890625 10.796875 76.785156 4.816406 79.484375 -2.515625 L 81.796875 -9.265625 L 5.78125 -198.328125 L 54.984375 -198.328125 L 101.671875 -78.328125 L 106.6875 -57.875 L 111.890625 -78.140625 L 157.8125 -198.140625 L 207.59375 -198.328125 L 130.21875 -4.4375 C 124.4375 10.351562 118.648438 22.472656 112.859375 31.921875 C 107.066406 41.378906 100.859375 48.710938 94.234375 53.921875 C 87.617188 59.128906 80.160156 62.726562 71.859375 64.71875 C 63.566406 66.71875 53.890625 67.71875 42.828125 67.71875 Z M 42.828125 67.71875 "/></g></g></g><g transform="matrix(1, 0, 0, 1, 54, 503)"><g clip-path="url(#6d14ea85e4)"><g fill="#1e1e1e" fill-opacity="1"><g transform="translate(3.365122, 408.65489)"><g><path d="M 135.46875 -221.5625 L 47.328125 -14.28125 C 45.421875 -9.113281 42.492188 -5.097656 38.546875 -2.234375 C 34.609375 0.617188 30.328125 2.046875 25.703125 2.046875 C 18.359375 2.046875 12.914062 0.00390625 9.375 -4.078125 C 5.84375 -8.160156 4.078125 -13.191406 4.078125 -19.171875 C 4.078125 -21.617188 4.484375 -24.207031 5.296875 -26.9375 L 106.90625 -270.9375 C 109.082031 -276.375 112.414062 -280.585938 116.90625 -283.578125 C 121.394531 -286.566406 126.222656 -287.789062 131.390625 -287.25 C 136.285156 -287.25 140.835938 -285.820312 145.046875 -282.96875 C 149.265625 -280.113281 152.328125 -276.101562 154.234375 -270.9375 L 254.609375 -31.828125 C 255.972656 -28.285156 256.65625 -25.019531 256.65625 -22.03125 C 256.65625 -14.6875 254.273438 -8.835938 249.515625 -4.484375 C 244.753906 -0.128906 239.515625 2.046875 233.796875 2.046875 C 228.898438 2.046875 224.476562 0.550781 220.53125 -2.4375 C 216.59375 -5.4375 213.535156 -9.519531 211.359375 -14.6875 L 123.640625 -219.109375 Z M 59.984375 -64.0625 L 82.421875 -110.984375 L 192.59375 -110.984375 L 200.34375 -64.0625 Z M 59.984375 -64.0625 "/></g></g></g><g fill="#1e1e1e" fill-opacity="1"><g transform="translate(241.6115, 408.65489)"><g><path d="M 56.3125 -286.03125 C 60.113281 -286.03125 64.125 -285.007812 68.34375 -282.96875 C 72.5625 -280.925781 75.757812 -278.273438 77.9375 -275.015625 L 177.078125 -122.40625 L 156.6875 -123.21875 L 258.28125 -275.015625 C 263.445312 -282.359375 270.113281 -286.03125 278.28125 -286.03125 C 284.800781 -286.03125 290.644531 -283.71875 295.8125 -279.09375 C 300.988281 -274.46875 303.578125 -268.484375 303.578125 -261.140625 L 303.578125 -24.890625 C 303.578125 -17.816406 301.265625 -11.898438 296.640625 -7.140625 C 292.015625 -2.378906 285.894531 0 278.28125 0 C 270.664062 0 264.476562 -2.378906 259.71875 -7.140625 C 254.957031 -11.898438 252.578125 -17.816406 252.578125 -24.890625 L 252.578125 -217.078125 L 268.484375 -213.40625 L 185.25 -86.5 C 182.800781 -83.507812 179.738281 -80.925781 176.0625 -78.75 C 172.394531 -76.570312 168.65625 -75.617188 164.84375 -75.890625 C 161.3125 -75.617188 157.707031 -76.570312 154.03125 -78.75 C 150.351562 -80.925781 147.289062 -83.507812 144.84375 -86.5 L 66.921875 -209.734375 L 77.53125 -231.359375 L 77.53125 -24.890625 C 77.53125 -17.816406 75.351562 -11.898438 71 -7.140625 C 66.644531 -2.378906 60.929688 0 53.859375 0 C 47.054688 0 41.476562 -2.378906 37.125 -7.140625 C 32.78125 -11.898438 30.609375 -17.816406 30.609375 -24.890625 L 30.609375 -261.140625 C 30.609375 -267.941406 33.125 -273.789062 38.15625 -278.6875 C 43.1875 -283.582031 49.238281 -286.03125 56.3125 -286.03125 Z M 56.3125 -286.03125 "/></g></g></g><g fill="#1e1e1e" fill-opacity="1"><g transform="translate(553.291745, 408.65489)"><g><path d="M 135.46875 -221.5625 L 47.328125 -14.28125 C 45.421875 -9.113281 42.492188 -5.097656 38.546875 -2.234375 C 34.609375 0.617188 30.328125 2.046875 25.703125 2.046875 C 18.359375 2.046875 12.914062 0.00390625 9.375 -4.078125 C 5.84375 -8.160156 4.078125 -13.191406 4.078125 -19.171875 C 4.078125 -21.617188 4.484375 -24.207031 5.296875 -26.9375 L 106.90625 -270.9375 C 109.082031 -276.375 112.414062 -280.585938 116.90625 -283.578125 C 121.394531 -286.566406 126.222656 -287.789062 131.390625 -287.25 C 136.285156 -287.25 140.835938 -285.820312 145.046875 -282.96875 C 149.265625 -280.113281 152.328125 -276.101562 154.234375 -270.9375 L 254.609375 -31.828125 C 255.972656 -28.285156 256.65625 -25.019531 256.65625 -22.03125 C 256.65625 -14.6875 254.273438 -8.835938 249.515625 -4.484375 C 244.753906 -0.128906 239.515625 2.046875 233.796875 2.046875 C 228.898438 2.046875 224.476562 0.550781 220.53125 -2.4375 C 216.59375 -5.4375 213.535156 -9.519531 211.359375 -14.6875 L 123.640625 -219.109375 Z M 59.984375 -64.0625 L 82.421875 -110.984375 L 192.59375 -110.984375 L 200.34375 -64.0625 Z M 59.984375 -64.0625 "/></g></g></g><g fill="#1e1e1e" fill-opacity="1"><g transform="translate(791.538123, 408.65489)"><g><path d="M 188.109375 -47.734375 C 195.179688 -47.734375 201.097656 -45.488281 205.859375 -41 C 210.617188 -36.519531 213 -30.742188 213 -23.671875 C 213 -16.867188 210.617188 -11.222656 205.859375 -6.734375 C 201.097656 -2.242188 195.179688 0 188.109375 0 L 55.5 0 C 48.425781 0 42.507812 -2.378906 37.75 -7.140625 C 32.988281 -11.898438 30.609375 -17.816406 30.609375 -24.890625 L 30.609375 -260.734375 C 30.609375 -267.804688 33.054688 -273.722656 37.953125 -278.484375 C 42.847656 -283.242188 49.101562 -285.625 56.71875 -285.625 C 63.25 -285.625 69.03125 -283.242188 74.0625 -278.484375 C 79.09375 -273.722656 81.609375 -267.804688 81.609375 -260.734375 L 81.609375 -40.796875 L 72.625 -47.734375 Z M 188.109375 -47.734375 "/></g></g></g></g></g><g transform="matrix(1, 0, 0, 1, 451, 936)"><g clip-path="url(#b84179613a)"><g fill="#1e1e1e" fill-opacity="1"><g transform="translate(3.016779, 47.676622)"><g><path d="M 30.28125 -17.65625 C 30.28125 -19.476562 29.796875 -21.175781 28.828125 -22.75 C 27.867188 -24.320312 26.601562 -25.585938 25.03125 -26.546875 C 23.457031 -27.515625 21.757812 -28 19.9375 -28 C 18.132812 -28 16.4375 -27.515625 14.84375 -26.546875 C 13.257812 -25.585938 11.984375 -24.320312 11.015625 -22.75 C 10.054688 -21.175781 9.578125 -19.476562 9.578125 -17.65625 C 9.578125 -15.851562 10.054688 -14.160156 11.015625 -12.578125 C 11.984375 -10.992188 13.257812 -9.707031 14.84375 -8.71875 C 16.4375 -7.738281 18.132812 -7.25 19.9375 -7.25 C 21.757812 -7.25 23.457031 -7.738281 25.03125 -8.71875 C 26.601562 -9.707031 27.867188 -10.992188 28.828125 -12.578125 C 29.796875 -14.160156 30.28125 -15.851562 30.28125 -17.65625 Z M 38.046875 -17.59375 C 38.046875 -15.1875 37.5625 -12.882812 36.59375 -10.6875 C 35.632812 -8.5 34.316406 -6.566406 32.640625 -4.890625 C 30.960938 -3.210938 29.035156 -1.890625 26.859375 -0.921875 C 24.691406 0.0351562 22.382812 0.515625 19.9375 0.515625 C 17.519531 0.515625 15.210938 0.0351562 13.015625 -0.921875 C 10.828125 -1.890625 8.894531 -3.210938 7.21875 -4.890625 C 5.539062 -6.566406 4.21875 -8.5 3.25 -10.6875 C 2.289062 -12.882812 1.8125 -15.1875 1.8125 -17.59375 C 1.8125 -20.050781 2.289062 -22.363281 3.25 -24.53125 C 4.21875 -26.707031 5.539062 -28.628906 7.21875 -30.296875 C 8.894531 -31.972656 10.828125 -33.296875 13.015625 -34.265625 C 15.210938 -35.234375 17.519531 -35.71875 19.9375 -35.71875 C 22.382812 -35.71875 24.691406 -35.234375 26.859375 -34.265625 C 29.035156 -33.296875 30.960938 -31.972656 32.640625 -30.296875 C 34.316406 -28.628906 35.632812 -26.707031 36.59375 -24.53125 C 37.5625 -22.363281 38.046875 -20.050781 38.046875 -17.59375 Z M 38.046875 -17.59375 "/></g></g></g><g fill="#1e1e1e" fill-opacity="1"><g transform="translate(70.83596, 47.676622)"><g><path d="M 10.765625 -7.140625 L 13.09375 -7.140625 C 15.09375 -7.140625 16.84375 -7.601562 18.34375 -8.53125 C 19.851562 -9.46875 21.03125 -10.726562 21.875 -12.3125 C 22.71875 -13.90625 23.140625 -15.664062 23.140625 -17.59375 C 23.140625 -19.5625 22.71875 -21.332031 21.875 -22.90625 C 21.03125 -24.476562 19.851562 -25.71875 18.34375 -26.625 C 16.84375 -27.539062 15.09375 -28 13.09375 -28 L 10.765625 -28 Z M 3.109375 -35.203125 L 13.5625 -35.203125 C 16.050781 -35.203125 18.351562 -34.753906 20.46875 -33.859375 C 22.59375 -32.960938 24.445312 -31.71875 26.03125 -30.125 C 27.625 -28.539062 28.859375 -26.675781 29.734375 -24.53125 C 30.617188 -22.394531 31.0625 -20.082031 31.0625 -17.59375 C 31.0625 -15.113281 30.617188 -12.800781 29.734375 -10.65625 C 28.859375 -8.519531 27.632812 -6.65625 26.0625 -5.0625 C 24.488281 -3.476562 22.632812 -2.238281 20.5 -1.34375 C 18.363281 -0.445312 16.050781 0 13.5625 0 L 3.109375 0 Z M 3.109375 -35.203125 "/></g></g></g><g fill="#1e1e1e" fill-opacity="1"><g transform="translate(131.666123, 47.676622)"><g><path d="M 22.265625 -13.453125 L 17.8125 -25.984375 L 13.359375 -13.453125 Z M 35.40625 0 L 27.078125 0 L 24.53125 -7.09375 L 11.125 -7.09375 L 8.59375 0 L 0.265625 0 L 14.546875 -35.203125 L 21.125 -35.203125 Z M 35.40625 0 "/></g></g></g><g fill="#1e1e1e" fill-opacity="1"><g transform="translate(195.291854, 47.676622)"><g><path d="M 18.0625 -28.15625 L 18.0625 0 L 10.296875 0 L 10.296875 -28.15625 L 0.265625 -28.15625 L 0.265625 -35.203125 L 28.109375 -35.203125 L 28.109375 -28.15625 Z M 18.0625 -28.15625 "/></g></g></g><g fill="#1e1e1e" fill-opacity="1"><g transform="translate(251.617985, 47.676622)"><g><path d="M 3.109375 0 L 3.109375 -35.203125 L 10.875 -35.203125 L 10.875 -7.046875 L 23.5 -7.046875 L 23.5 0 Z M 3.109375 0 "/></g></g></g><g fill="#1e1e1e" fill-opacity="1"><g transform="translate(304.889644, 47.676622)"><g><path d="M 22.265625 -13.453125 L 17.8125 -25.984375 L 13.359375 -13.453125 Z M 35.40625 0 L 27.078125 0 L 24.53125 -7.09375 L 11.125 -7.09375 L 8.59375 0 L 0.265625 0 L 14.546875 -35.203125 L 21.125 -35.203125 Z M 35.40625 0 "/></g></g></g><g fill="#1e1e1e" fill-opacity="1"><g transform="translate(368.515375, 47.676622)"><g><path d="M 10.875 -12.578125 L 10.875 0 L 3.109375 0 L 3.109375 -35.203125 L 16.3125 -35.203125 C 18.207031 -35.203125 19.972656 -34.726562 21.609375 -33.78125 C 23.253906 -32.832031 24.578125 -31.507812 25.578125 -29.8125 C 26.578125 -28.125 27.078125 -26.160156 27.078125 -23.921875 C 27.078125 -21.953125 26.710938 -20.207031 25.984375 -18.6875 C 25.265625 -17.164062 24.300781 -15.921875 23.09375 -14.953125 C 21.882812 -13.992188 20.535156 -13.320312 19.046875 -12.9375 L 29.140625 0 L 19.3125 0 L 10.921875 -12.578125 Z M 15.015625 -29.09375 L 10.875 -29.09375 L 10.875 -18.6875 L 15.015625 -18.6875 C 16.148438 -18.6875 17.207031 -19.132812 18.1875 -20.03125 C 19.175781 -20.925781 19.671875 -22.222656 19.671875 -23.921875 C 19.671875 -25.535156 19.175781 -26.800781 18.1875 -27.71875 C 17.207031 -28.632812 16.148438 -29.09375 15.015625 -29.09375 Z M 15.015625 -29.09375 "/></g></g></g><g fill="#1e1e1e" fill-opacity="1"><g transform="translate(424.996797, 47.676622)"><g><path d="M 30.75 0 L 22.984375 0 L 10.875 -21.953125 L 10.875 0 L 3.109375 0 L 3.109375 -35.203125 L 10.875 -35.203125 L 22.984375 -13.25 L 22.984375 -35.203125 L 30.75 -35.203125 Z M 30.75 0 "/></g></g></g><g fill="#1e1e1e" fill-opacity="1"><g transform="translate(486.81058, 47.676622)"><g><path d="M 10.875 0 L 3.109375 0 L 3.109375 -35.203125 L 10.875 -35.203125 Z M 10.875 0 "/></g></g></g><g fill="#1e1e1e" fill-opacity="1"><g transform="translate(528.744482, 47.676622)"><g/></g></g><g fill="#1e1e1e" fill-opacity="1"><g transform="translate(569.642957, 47.676622)"><g><path d="M 20.078125 -10.296875 C 20.078125 -11.441406 19.65625 -12.4375 18.8125 -13.28125 C 17.96875 -14.125 16.957031 -14.546875 15.78125 -14.546875 L 10.875 -14.546875 L 10.875 -6.0625 L 15.78125 -6.0625 C 16.957031 -6.0625 17.96875 -6.472656 18.8125 -7.296875 C 19.65625 -8.128906 20.078125 -9.128906 20.078125 -10.296875 Z M 17.65625 -25 C 17.65625 -26.144531 17.25 -27.113281 16.4375 -27.90625 C 15.625 -28.695312 14.664062 -29.09375 13.5625 -29.09375 L 10.875 -29.09375 L 10.875 -20.90625 L 13.5625 -20.90625 C 14.664062 -20.90625 15.625 -21.3125 16.4375 -22.125 C 17.25 -22.9375 17.65625 -23.894531 17.65625 -25 Z M 28 -10.09375 C 28 -7.050781 27.066406 -4.609375 25.203125 -2.765625 C 23.347656 -0.921875 20.726562 0 17.34375 0 L 3.109375 0 L 3.109375 -35.203125 L 15.21875 -35.203125 C 17.21875 -35.203125 18.953125 -34.800781 20.421875 -34 C 21.890625 -33.207031 23.023438 -32.144531 23.828125 -30.8125 C 24.640625 -29.488281 25.046875 -28.019531 25.046875 -26.40625 C 25.046875 -24.601562 24.675781 -23.054688 23.9375 -21.765625 C 23.195312 -20.472656 22.171875 -19.535156 20.859375 -18.953125 C 22.828125 -18.492188 24.507812 -17.5 25.90625 -15.96875 C 27.300781 -14.4375 28 -12.476562 28 -10.09375 Z M 28 -10.09375 "/></g></g></g><g fill="#1e1e1e" fill-opacity="1"><g transform="translate(626.12438, 47.676622)"><g><path d="M 30.28125 -17.65625 C 30.28125 -19.476562 29.796875 -21.175781 28.828125 -22.75 C 27.867188 -24.320312 26.601562 -25.585938 25.03125 -26.546875 C 23.457031 -27.515625 21.757812 -28 19.9375 -28 C 18.132812 -28 16.4375 -27.515625 14.84375 -26.546875 C 13.257812 -25.585938 11.984375 -24.320312 11.015625 -22.75 C 10.054688 -21.175781 9.578125 -19.476562 9.578125 -17.65625 C 9.578125 -15.851562 10.054688 -14.160156 11.015625 -12.578125 C 11.984375 -10.992188 13.257812 -9.707031 14.84375 -8.71875 C 16.4375 -7.738281 18.132812 -7.25 19.9375 -7.25 C 21.757812 -7.25 23.457031 -7.738281 25.03125 -8.71875 C 26.601562 -9.707031 27.867188 -10.992188 28.828125 -12.578125 C 29.796875 -14.160156 30.28125 -15.851562 30.28125 -17.65625 Z M 38.046875 -17.59375 C 38.046875 -15.1875 37.5625 -12.882812 36.59375 -10.6875 C 35.632812 -8.5 34.316406 -6.566406 32.640625 -4.890625 C 30.960938 -3.210938 29.035156 -1.890625 26.859375 -0.921875 C 24.691406 0.0351562 22.382812 0.515625 19.9375 0.515625 C 17.519531 0.515625 15.210938 0.0351562 13.015625 -0.921875 C 10.828125 -1.890625 8.894531 -3.210938 7.21875 -4.890625 C 5.539062 -6.566406 4.21875 -8.5 3.25 -10.6875 C 2.289062 -12.882812 1.8125 -15.1875 1.8125 -17.59375 C 1.8125 -20.050781 2.289062 -22.363281 3.25 -24.53125 C 4.21875 -26.707031 5.539062 -28.628906 7.21875 -30.296875 C 8.894531 -31.972656 10.828125 -33.296875 13.015625 -34.265625 C 15.210938 -35.234375 17.519531 -35.71875 19.9375 -35.71875 C 22.382812 -35.71875 24.691406 -35.234375 26.859375 -34.265625 C 29.035156 -33.296875 30.960938 -31.972656 32.640625 -30.296875 C 34.316406 -28.628906 35.632812 -26.707031 36.59375 -24.53125 C 37.5625 -22.363281 38.046875 -20.050781 38.046875 -17.59375 Z M 38.046875 -17.59375 "/></g></g></g><g fill="#1e1e1e" fill-opacity="1"><g transform="translate(693.94356, 47.676622)"><g><path d="M 16.765625 -5.484375 C 17.597656 -5.484375 18.492188 -5.613281 19.453125 -5.875 C 20.421875 -6.132812 21.257812 -6.566406 21.96875 -7.171875 C 22.675781 -7.773438 23.03125 -8.59375 23.03125 -9.625 C 23.03125 -10.59375 22.660156 -11.367188 21.921875 -11.953125 C 21.179688 -12.546875 20.207031 -13.03125 19 -13.40625 C 17.789062 -13.789062 16.46875 -14.144531 15.03125 -14.46875 C 13.601562 -14.789062 12.164062 -15.1875 10.71875 -15.65625 C 9.269531 -16.125 7.941406 -16.738281 6.734375 -17.5 C 5.523438 -18.257812 4.546875 -19.242188 3.796875 -20.453125 C 3.054688 -21.660156 2.6875 -23.191406 2.6875 -25.046875 C 2.6875 -26.878906 3.066406 -28.457031 3.828125 -29.78125 C 4.585938 -31.113281 5.597656 -32.21875 6.859375 -33.09375 C 8.117188 -33.976562 9.53125 -34.632812 11.09375 -35.0625 C 12.664062 -35.5 14.25 -35.71875 15.84375 -35.71875 C 18.257812 -35.71875 20.519531 -35.335938 22.625 -34.578125 C 24.726562 -33.816406 26.441406 -32.613281 27.765625 -30.96875 C 29.097656 -29.332031 29.800781 -27.171875 29.875 -24.484375 L 22.359375 -24.484375 C 22.148438 -26.316406 21.507812 -27.582031 20.4375 -28.28125 C 19.375 -28.988281 17.875 -29.34375 15.9375 -29.34375 C 15.21875 -29.34375 14.453125 -29.222656 13.640625 -28.984375 C 12.828125 -28.742188 12.132812 -28.351562 11.5625 -27.8125 C 11 -27.28125 10.71875 -26.566406 10.71875 -25.671875 C 10.71875 -24.773438 11.085938 -24.066406 11.828125 -23.546875 C 12.566406 -23.035156 13.539062 -22.601562 14.75 -22.25 C 15.957031 -21.90625 17.285156 -21.578125 18.734375 -21.265625 C 20.179688 -20.960938 21.617188 -20.585938 23.046875 -20.140625 C 24.484375 -19.691406 25.804688 -19.078125 27.015625 -18.296875 C 28.222656 -17.523438 29.195312 -16.515625 29.9375 -15.265625 C 30.6875 -14.023438 31.0625 -12.441406 31.0625 -10.515625 C 31.0625 -8.441406 30.644531 -6.675781 29.8125 -5.21875 C 28.988281 -3.769531 27.875 -2.609375 26.46875 -1.734375 C 25.070312 -0.859375 23.503906 -0.210938 21.765625 0.203125 C 20.023438 0.617188 18.257812 0.828125 16.46875 0.828125 C 13.875 0.828125 11.445312 0.390625 9.1875 -0.484375 C 6.925781 -1.367188 5.097656 -2.722656 3.703125 -4.546875 C 2.304688 -6.378906 1.585938 -8.726562 1.546875 -11.59375 L 9.421875 -11.59375 C 9.523438 -9.488281 10.300781 -7.941406 11.75 -6.953125 C 13.195312 -5.972656 14.867188 -5.484375 16.765625 -5.484375 Z M 16.765625 -5.484375 "/></g></g></g><g fill="#1e1e1e" fill-opacity="1"><g transform="translate(754.514883, 47.676622)"><g><path d="M 22.46875 -35.203125 L 30.75 -35.203125 L 30.75 0 L 22.46875 0 L 22.46875 -14.125 L 10.875 -14.125 L 10.875 0 L 3.109375 0 L 3.109375 -35.203125 L 10.875 -35.203125 L 10.875 -21.171875 L 22.46875 -21.171875 Z M 22.46875 -35.203125 "/></g></g></g><g fill="#1e1e1e" fill-opacity="1"><g transform="translate(816.328665, 47.676622)"><g><path d="M 30.28125 -17.65625 C 30.28125 -19.476562 29.796875 -21.175781 28.828125 -22.75 C 27.867188 -24.320312 26.601562 -25.585938 25.03125 -26.546875 C 23.457031 -27.515625 21.757812 -28 19.9375 -28 C 18.132812 -28 16.4375 -27.515625 14.84375 -26.546875 C 13.257812 -25.585938 11.984375 -24.320312 11.015625 -22.75 C 10.054688 -21.175781 9.578125 -19.476562 9.578125 -17.65625 C 9.578125 -15.851562 10.054688 -14.160156 11.015625 -12.578125 C 11.984375 -10.992188 13.257812 -9.707031 14.84375 -8.71875 C 16.4375 -7.738281 18.132812 -7.25 19.9375 -7.25 C 21.757812 -7.25 23.457031 -7.738281 25.03125 -8.71875 C 26.601562 -9.707031 27.867188 -10.992188 28.828125 -12.578125 C 29.796875 -14.160156 30.28125 -15.851562 30.28125 -17.65625 Z M 32.140625 -4.40625 L 35.921875 -6.15625 L 40.125 -6.15625 L 40.125 0 L 24.125 0 C 22.738281 0.34375 21.34375 0.515625 19.9375 0.515625 C 17.519531 0.515625 15.210938 0.0351562 13.015625 -0.921875 C 10.828125 -1.890625 8.894531 -3.210938 7.21875 -4.890625 C 5.539062 -6.566406 4.21875 -8.5 3.25 -10.6875 C 2.289062 -12.882812 1.8125 -15.1875 1.8125 -17.59375 C 1.8125 -20.050781 2.289062 -22.363281 3.25 -24.53125 C 4.21875 -26.707031 5.539062 -28.628906 7.21875 -30.296875 C 8.894531 -31.972656 10.828125 -33.296875 13.015625 -34.265625 C 15.210938 -35.234375 17.519531 -35.71875 19.9375 -35.71875 C 22.382812 -35.71875 24.691406 -35.234375 26.859375 -34.265625 C 29.035156 -33.296875 30.960938 -31.972656 32.640625 -30.296875 C 34.316406 -28.628906 35.632812 -26.707031 36.59375 -24.53125 C 37.5625 -22.363281 38.046875 -20.050781 38.046875 -17.59375 C 38.046875 -15.039062 37.507812 -12.625 36.4375 -10.34375 C 35.375 -8.070312 33.941406 -6.09375 32.140625 -4.40625 Z M 32.140625 -4.40625 "/></g></g></g><g fill="#1e1e1e" fill-opacity="1"><g transform="translate(884.458493, 47.676622)"><g><path d="M 22.265625 -13.453125 L 17.8125 -25.984375 L 13.359375 -13.453125 Z M 35.40625 0 L 27.078125 0 L 24.53125 -7.09375 L 11.125 -7.09375 L 8.59375 0 L 0.265625 0 L 14.546875 -35.203125 L 21.125 -35.203125 Z M 35.40625 0 "/></g></g></g><g fill="#1e1e1e" fill-opacity="1"><g transform="translate(948.084224, 47.676622)"><g><path d="M 10.875 -12.578125 L 10.875 0 L 3.109375 0 L 3.109375 -35.203125 L 16.3125 -35.203125 C 18.207031 -35.203125 19.972656 -34.726562 21.609375 -33.78125 C 23.253906 -32.832031 24.578125 -31.507812 25.578125 -29.8125 C 26.578125 -28.125 27.078125 -26.160156 27.078125 -23.921875 C 27.078125 -21.953125 26.710938 -20.207031 25.984375 -18.6875 C 25.265625 -17.164062 24.300781 -15.921875 23.09375 -14.953125 C 21.882812 -13.992188 20.535156 -13.320312 19.046875 -12.9375 L 29.140625 0 L 19.3125 0 L 10.921875 -12.578125 Z M 15.015625 -29.09375 L 10.875 -29.09375 L 10.875 -18.6875 L 15.015625 -18.6875 C 16.148438 -18.6875 17.207031 -19.132812 18.1875 -20.03125 C 19.175781 -20.925781 19.671875 -22.222656 19.671875 -23.921875 C 19.671875 -25.535156 19.175781 -26.800781 18.1875 -27.71875 C 17.207031 -28.632812 16.148438 -29.09375 15.015625 -29.09375 Z M 15.015625 -29.09375 "/></g></g></g></g></g></svg>